<svg width="269" height="80" viewBox="0 0 269 80" fill="none" xmlns="http://www.w3.org/2000/svg">
<g clip-path="url(#clip0)">
<path d="M216.194 67.0444H53.7652L66.7207 79.9999L216.194 67.0444Z" fill="#BF0000"/>
<path d="M242.267 58.7852V32.8743C242.267 28.016 245.668 23.9674 250.526 23.9674C255.385 23.9674 258.785 28.016 258.785 32.8743V58.7852H268.826V32.8743C268.826 22.186 261.538 13.603 250.85 13.603C245.992 13.603 242.267 16.3561 242.267 16.3561V14.5747H232.227V58.6233H242.267V58.7852Z" fill="#BF0000"/>
<path d="M209.069 13.4414C197.409 13.4414 189.15 23.6438 189.15 36.5993C189.15 50.2025 199.514 59.7572 210.04 59.7572C215.385 59.7572 222.024 57.9758 227.692 49.8787L218.785 44.6965C211.984 54.7369 200.486 49.7167 199.19 39.5143H228.016C230.607 23.9677 220.405 13.4414 209.069 13.4414ZM217.814 30.9313H199.838C201.943 20.7289 215.87 20.0811 217.814 30.9313Z" fill="#BF0000"/>
<path d="M185.911 48.2593C184.939 48.9071 183.806 49.3929 182.51 49.3929C180.891 49.3929 177.814 48.0974 177.814 44.0488V25.1014H186.397V14.5751H177.814V3.56299H167.773V14.5751H162.429V25.1014H167.773V44.0488C167.773 53.9274 175.223 59.7573 182.672 59.7573C185.425 59.7573 189.312 58.7857 192.389 57.0043L185.911 48.2593Z" fill="#BF0000"/>
<path d="M148.988 14.5747V40.4856C148.988 45.3439 145.587 49.3925 140.729 49.3925C135.87 49.3925 132.47 45.3439 132.47 40.4856V14.5747H122.429V40.4856C122.429 51.1739 129.717 59.7569 140.405 59.7569C145.263 59.7569 148.988 57.0039 148.988 57.0039V58.6233H159.028V14.5747H148.988Z" fill="#BF0000"/>
<path d="M103.644 35.3036L120.81 14.5749H106.883L94.7368 29.9595V0H84.5344V58.7854H94.7368V40.6478L109.636 58.7854H123.563L103.644 35.3036Z" fill="#BF0000"/>
<path d="M68.8259 14.575V16.5183C65.749 14.575 63.1579 13.4414 59.4332 13.4414C48.0971 13.4414 39.3522 23.8058 39.3522 36.5993C39.3522 49.3928 47.9352 59.7572 59.4332 59.7572C63.1579 59.7572 65.9109 58.6236 68.8259 56.6803V58.6236H78.8664V14.575H68.8259ZM59.2712 49.2309C53.6032 49.2309 49.5546 43.7248 49.5546 36.7612C49.5546 29.7977 53.6032 24.2916 59.2712 24.2916C64.9393 24.2916 68.8259 29.7977 68.8259 36.7612C68.9878 43.7248 64.9393 49.2309 59.2712 49.2309Z" fill="#BF0000"/>
<path d="M10.5263 58.7857V41.6197H17.8138L30.6073 58.6237H43.7247L28.1781 38.0569C33.0364 34.6561 36.1134 28.9881 36.1134 22.5104C36.1134 11.984 27.5304 3.56299 17.166 3.56299H0V58.6237H10.5263V58.7857ZM10.5263 14.0893H17.3279C22.0243 14.0893 25.9109 17.9759 25.9109 22.6723C25.9109 27.3687 22.0243 31.2553 17.3279 31.2553H10.5263V14.0893Z" fill="#BF0000"/>
</g>
<defs>
<clipPath id="clip0">
<rect width="268.664" height="80" fill="white"/>
</clipPath>
</defs>
</svg>
