<svg width="280" height="80" viewBox="0 0 280 80" fill="none" xmlns="http://www.w3.org/2000/svg">
<path d="M31.6084 2.79697C32.1678 2.79697 32.4476 3.07669 33.007 3.35641C29.6504 4.75501 26.2937 8.39138 24.6154 16.2235L18.4615 17.9019C20.4196 12.3075 24.3357 2.79697 31.6084 2.79697ZM34.6853 5.59417C35.2448 7.27249 35.8042 9.23054 35.8042 12.3075C35.8042 12.5872 35.8042 12.5872 35.8042 12.8669L27.6923 15.1047C29.3706 9.23054 32.1678 6.71305 34.6853 5.59417ZM41.958 10.6291L38.3217 11.748C38.3217 11.4683 38.3217 11.1886 38.3217 10.9089C38.3217 8.39138 38.042 6.43333 37.4825 4.75501C39.4406 5.31445 41.1189 7.83193 41.958 10.6291ZM60.1399 15.1047C60.1399 14.8249 59.8601 14.5452 59.5804 14.5452C59.021 14.5452 53.1469 13.9858 53.1469 13.9858C53.1469 13.9858 48.951 9.78998 48.3916 9.51026C47.8322 8.95082 46.993 9.23054 46.7133 9.23054C46.7133 9.23054 45.8741 9.51026 44.4755 10.0697C43.0769 6.15361 40.5594 2.51725 36.3636 2.51725H36.0839C34.965 0.838928 33.2867 0.279488 31.8881 0.279488C21.8182 -0.000232548 17.0629 12.5872 15.3846 19.0207C13.1469 19.5802 10.9091 20.4193 8.39161 21.2585C6.15385 21.8179 6.15385 22.0977 5.87413 24.0557C5.59441 25.4543 0 69.6501 0 69.6501L44.4755 78.0417L68.5315 72.727C68.5315 72.727 60.1399 15.6641 60.1399 15.1047Z" fill="#8DB849"/>
<path d="M59.3005 14.5452C59.0208 14.5452 53.1467 13.9857 53.1467 13.9857C53.1467 13.9857 48.9509 9.78991 48.3914 9.51019C48.1117 9.23047 48.1117 9.23047 47.832 9.23047L44.4753 78.0417L68.5313 72.727C68.5313 72.727 60.1397 15.664 60.1397 15.1046C60.1397 14.8249 59.5802 14.5452 59.3005 14.5452Z" fill="#5A863E"/>
<path d="M36.3635 27.9718L33.2866 36.9228C33.2866 36.9228 30.7691 35.5242 27.4125 35.5242C22.6572 35.5242 22.3775 38.3214 22.3775 39.1606C22.3775 43.0767 33.0069 44.755 33.0069 54.2655C33.0069 61.8179 28.2516 66.5732 21.8181 66.5732C14.2656 66.5732 10.3495 61.8179 10.3495 61.8179L12.3076 55.1046C12.3076 55.1046 16.2237 58.4613 19.5803 58.4613C21.8181 58.4613 22.6572 56.783 22.6572 55.3844C22.6572 50.0697 13.9859 49.79 13.9859 41.1186C13.9859 33.8459 19.3006 26.8529 29.6503 26.8529C34.4055 26.5732 36.3635 27.9718 36.3635 27.9718Z" fill="#FFFFFE"/>
<path d="M96.7832 44.4757C94.2657 43.0771 93.1468 41.9582 93.1468 40.5596C93.1468 38.6015 94.8252 37.4827 97.6224 37.4827C100.699 37.4827 103.496 38.8813 103.496 38.8813L105.734 32.168C105.734 32.168 103.776 30.4897 97.9021 30.4897C89.5105 30.4897 83.9161 35.2449 83.9161 41.9582C83.9161 45.8743 86.7133 48.6715 90.0699 50.6295C92.8671 52.3078 93.986 53.4267 93.986 55.105C93.986 56.7834 92.5874 58.4617 89.7902 58.4617C85.8741 58.4617 81.958 56.5037 81.958 56.5037L79.7203 63.2169C79.7203 63.2169 83.0769 65.4547 88.951 65.4547C97.3426 65.4547 103.496 61.2589 103.496 53.7064C103.496 49.5106 100.42 46.4337 96.7832 44.4757ZM130.629 30.2099C126.434 30.2099 123.077 32.168 120.559 35.2449L124.196 16.2239H114.685L105.455 64.6155H114.965L118.042 48.112C119.161 41.9582 122.517 38.0421 125.594 38.0421C127.832 38.0421 128.671 39.4407 128.671 41.6785C128.671 43.0771 128.671 44.4757 128.392 45.8743L124.755 64.8953H134.266L137.902 45.3148C138.182 43.3568 138.462 40.8393 138.462 39.161C138.462 33.5666 135.664 30.2099 130.629 30.2099ZM154.965 57.9023C151.608 57.9023 150.49 55.105 150.49 51.7484C150.49 46.4337 153.287 37.4827 158.322 37.4827C161.678 37.4827 162.797 40.2799 162.797 43.0771C162.797 49.2309 160 57.9023 154.965 57.9023ZM159.72 30.2099C148.252 30.2099 140.699 40.5596 140.699 52.0281C140.699 59.3008 145.175 65.175 153.846 65.175C165.035 65.175 172.587 55.105 172.587 43.3568C172.587 36.6435 168.671 30.2099 159.72 30.2099ZM187.692 58.182C185.175 58.182 183.776 56.7834 183.776 56.7834L185.455 47.8323C186.573 41.9582 189.65 38.0421 193.007 38.0421C195.804 38.0421 196.923 40.8393 196.923 43.3568C196.643 49.5106 193.007 58.182 187.692 58.182ZM196.923 30.2099C190.49 30.2099 186.853 35.8043 186.853 35.8043L187.413 30.7694H179.021C178.741 34.126 177.902 39.4407 177.063 43.3568L170.35 78.0421H179.86L182.378 64.0561H182.657C182.657 64.0561 184.615 65.175 188.252 65.175C199.441 65.175 206.713 53.7064 206.713 42.2379C206.713 36.0841 203.916 30.2099 196.923 30.2099ZM220.14 16.7834C217.063 16.7834 214.825 19.3008 214.825 22.3778C214.825 25.175 216.503 27.133 219.301 27.133C222.378 27.133 224.895 25.175 224.895 21.5386C224.895 18.7414 222.937 16.7834 220.14 16.7834ZM206.993 64.6155H216.503L222.937 31.0491H213.427L206.993 64.6155ZM246.993 31.0491H240.28L240.559 29.3708C241.119 26.0141 243.077 23.2169 246.154 23.2169C247.832 23.2169 249.231 23.7764 249.231 23.7764L251.189 16.2239C251.189 16.2239 249.51 15.3848 246.154 15.3848C242.797 15.3848 239.441 16.2239 236.923 18.4617C233.566 21.2589 232.168 25.175 231.329 29.0911L231.049 30.7694H226.573L225.175 38.0421H229.65L224.615 64.6155H234.126L239.161 38.0421H245.594L246.993 31.0491ZM269.65 31.0491C269.65 31.0491 263.776 45.8743 260.979 53.9862C260.699 51.4687 258.741 31.0491 258.741 31.0491H248.671L254.266 61.8183C254.266 62.3778 254.266 62.9372 253.986 63.4967C252.867 65.7344 250.909 67.6925 248.951 69.0911C247.273 70.4897 245.035 71.3288 243.636 71.8883L246.154 80.0002C248.112 79.7204 252.028 78.0421 255.385 74.9652C259.58 71.0491 263.776 64.6155 267.692 56.2239L279.161 31.3288L269.65 31.0491Z" fill="#1A1919"/>
</svg>
