<svg width="104" height="118" viewBox="0 0 104 118" fill="none" xmlns="http://www.w3.org/2000/svg">
<path fill-rule="evenodd" clip-rule="evenodd" d="M68.0135 117.238L103.086 109.64C103.086 109.64 90.4354 24.0217 90.326 23.453C90.2385 22.8915 89.7719 22.5196 89.3052 22.5196C88.8312 22.5196 79.9281 21.8634 79.9281 21.8634C79.9281 21.8634 73.7302 15.6655 72.9281 15.0092C72.7094 14.8269 72.5635 14.7321 72.3448 14.6446L67.8969 117.238H68.0135ZM50.3823 55.6238C50.3823 55.6238 46.4448 53.5603 41.7562 53.5603C34.7198 53.5603 34.4427 57.9717 34.4427 59.1019C34.4427 65.0957 50.1927 67.4436 50.1927 81.604C50.1927 92.7603 43.1927 99.8915 33.6406 99.8915C22.1927 99.8915 16.4323 92.7603 16.4323 92.7603L19.5677 82.6248C19.5677 82.6248 25.6198 87.8019 30.651 87.8019C33.9323 87.8019 35.3906 85.1623 35.3906 83.2811C35.3906 75.4061 22.4844 75.0415 22.4844 62.0915C22.3312 51.2123 30.1333 40.6248 45.9562 40.6248C52.0667 40.6248 55.0708 42.3748 55.0708 42.3748L50.4771 55.5728L50.3823 55.6238ZM47.7573 4.6988C48.4135 4.6988 49.0698 4.88838 49.726 5.35505C44.9427 7.61546 39.6927 13.3248 37.5344 24.7655C34.3479 25.8009 31.2489 26.7342 28.3469 27.58C30.8771 18.8957 36.9729 4.74984 47.7573 4.74984V4.6988ZM53.7583 19.0415V19.6978C50.0979 20.828 46.0656 22.0457 42.1281 23.2707C44.3885 14.6373 48.6031 10.4228 52.2635 8.83317C53.1969 11.2613 53.7583 14.5498 53.7583 19.0415ZM56.3833 8.17692C59.7594 8.5415 61.925 12.3915 63.325 16.7082C61.6333 17.2696 59.7521 17.8311 57.6958 18.4873V17.2696C57.6958 13.6092 57.2292 10.605 56.3833 8.16963V8.17692ZM70.9229 14.4478C70.8281 14.4478 70.6312 14.5498 70.5437 14.5498C70.4489 14.5498 69.1364 14.9144 67.0729 15.5707C65.0167 9.57692 61.3562 4.04984 54.8812 4.04984H54.3198C52.4458 1.68734 50.1854 0.666504 48.2167 0.666504C33.1229 0.666504 25.9042 19.5155 23.6437 29.0821C17.8396 30.8613 13.6177 32.1811 13.1437 32.3634C9.8625 33.3988 9.775 33.4936 9.39583 36.5925C9.03125 38.8384 0.5 104.952 0.5 104.952L66.4166 117.333L70.9156 14.4478H70.9229Z" fill="#7AB55C"/>
</svg>
